<?xml version="1.0" standalone="no"?>
<!DOCTYPE svg PUBLIC "-//W3C//DTD SVG 20010904//EN"
 "http://www.w3.org/TR/2001/REC-SVG-20010904/DTD/svg10.dtd">
<svg version="1.0" xmlns="http://www.w3.org/2000/svg"
 width="1920.000000pt" height="1536.000000pt" viewBox="0 0 1920.000000 1536.000000"
 preserveAspectRatio="xMidYMid meet">

<g transform="translate(0.000000,1536.000000) scale(0.100000,-0.100000)"
fill="#000000" stroke="none">
<path d="M9761 10038 c-33 -18 -115 -117 -179 -219 -68 -108 -165 -210 -231
-244 -32 -16 -59 -38 -69 -57 -51 -92 -82 -117 -329 -273 -27 -17 -49 -39 -51
-50 -7 -47 -25 -74 -55 -85 -93 -34 -116 -50 -155 -107 -22 -32 -53 -74 -69
-94 -16 -20 -51 -78 -77 -128 -37 -69 -66 -108 -118 -156 -37 -36 -68 -68 -68
-73 0 -4 -16 -23 -35 -42 -19 -19 -35 -44 -35 -56 0 -15 -10 -26 -30 -34 -16
-7 -30 -16 -30 -21 0 -14 -71 -29 -91 -19 -10 6 -36 10 -59 10 -36 0 -46 6
-98 58 -33 34 -80 70 -113 85 -37 17 -71 44 -98 76 -23 27 -58 58 -79 68 -26
12 -45 33 -64 68 -34 65 -44 75 -73 75 -16 0 -45 20 -88 64 -141 142 -284 164
-360 55 -29 -43 -60 -59 -110 -59 -27 0 -45 -13 -113 -82 -116 -118 -351 -411
-471 -588 -46 -68 -98 -174 -136 -281 -68 -186 -122 -266 -297 -439 -145 -143
-221 -238 -260 -324 -27 -59 -33 -66 -59 -66 -23 0 -30 5 -33 22 -4 27 -77 46
-223 58 -115 9 -135 14 -228 64 -38 20 -75 36 -83 36 -27 0 -90 38 -139 84
-53 50 -62 53 -105 31 -15 -8 -50 -14 -77 -14 -66 2 -100 -18 -175 -101 -41
-45 -71 -70 -85 -70 -32 0 -53 -27 -53 -66 0 -27 -4 -34 -19 -34 -11 0 -26 -9
-34 -20 -22 -32 -84 -53 -120 -41 -49 18 -64 13 -116 -33 -31 -27 -63 -46 -87
-51 -87 -16 -141 -62 -195 -167 -45 -86 -66 -105 -130 -119 -47 -11 -129 -65
-129 -85 0 -8 -12 -21 -26 -30 -18 -12 -24 -23 -20 -37 12 -45 -46 -107 -135
-145 -49 -21 -69 -54 -69 -112 0 -30 -12 -46 -60 -82 -19 -14 -63 -50 -97 -81
-56 -50 -68 -56 -131 -67 -44 -7 -82 -21 -103 -36 -19 -13 -51 -27 -71 -31
-21 -3 -38 -7 -38 -9 0 -1 4 -14 9 -27 29 -75 -118 -212 -429 -399 -97 -58
-339 -188 -350 -188 -5 0 -12 -4 -15 -10 -8 -12 127 35 270 95 59 24 195 90
303 145 162 83 203 100 241 100 25 1 64 7 86 15 22 8 55 15 73 15 56 0 43 -35
-45 -119 -43 -41 -71 -71 -63 -66 8 4 47 29 85 55 39 25 93 59 120 75 28 15
72 48 99 72 27 24 54 42 60 40 6 -2 11 -26 10 -56 l-1 -53 33 38 c18 22 47 64
65 94 99 170 163 244 449 517 52 50 105 101 116 114 12 13 28 29 36 34 7 6 22
17 32 25 18 14 18 13 11 -20 -9 -43 -9 -44 99 102 48 65 101 128 119 141 54
40 135 80 151 74 58 -22 43 -296 -28 -507 -20 -58 -36 -107 -36 -109 0 -35
228 287 245 347 8 26 41 182 74 347 46 226 67 313 88 354 15 30 33 56 39 58
12 4 60 -95 100 -210 42 -120 56 -136 144 -161 221 -63 266 -188 131 -366 -46
-61 -108 -120 -226 -216 -47 -38 -140 -105 -392 -283 -57 -39 -137 -102 -178
-138 -69 -60 -75 -68 -60 -82 14 -15 29 -9 173 66 177 93 262 127 366 149 66
14 72 13 83 -3 7 -9 13 -22 13 -27 0 -20 -29 -140 -49 -209 -11 -37 -16 -65
-11 -62 5 3 35 49 66 103 72 122 173 271 233 342 26 30 62 75 81 100 19 25 42
53 52 63 9 9 24 40 32 67 8 28 30 70 49 93 19 23 42 58 52 77 30 59 127 181
156 196 22 11 30 12 39 2 63 -77 80 -104 86 -136 9 -57 14 -72 25 -72 20 0 90
127 135 243 141 367 227 513 290 491 62 -22 66 -52 30 -232 -19 -92 -37 -149
-74 -230 -51 -109 -92 -219 -92 -247 0 -14 3 -13 26 2 l27 17 -5 -32 c-4 -30
-3 -32 11 -17 9 8 50 66 92 128 71 106 99 131 121 109 5 -5 17 -49 27 -98 l18
-89 8 60 c19 151 81 405 117 483 12 24 42 67 68 95 26 29 54 66 63 84 23 43
37 182 25 236 -17 75 3 154 57 219 17 20 24 45 29 107 7 76 10 84 43 116 72
70 123 63 123 -18 0 -61 -34 -245 -70 -388 -44 -170 -56 -228 -70 -339 -17
-143 -41 -292 -52 -320 l-9 -25 25 25 c29 30 101 245 111 335 8 60 68 249 87
273 6 6 14 12 18 12 22 0 70 -56 100 -117 20 -40 35 -61 37 -52 2 9 -10 86
-28 170 -19 93 -29 170 -26 195 6 55 61 134 93 134 30 0 76 -46 138 -138 27
-39 51 -70 53 -68 2 2 -16 69 -41 147 -67 213 -76 259 -79 431 -2 166 10 230
56 299 34 50 54 49 67 -3 16 -64 43 -118 84 -167 52 -62 59 -79 61 -139 2 -40
10 -65 35 -105 77 -120 75 -112 73 -322 l-2 -190 33 88 c19 48 42 97 51 107
18 20 18 20 41 -1 43 -40 103 -221 105 -318 1 -42 2 -43 9 -16 24 96 2 257
-50 369 -26 54 -39 71 -65 82 -27 11 -36 23 -51 66 -9 29 -30 80 -47 113 -17
33 -34 83 -38 110 -4 28 -11 71 -15 96 l-6 47 43 -12 c54 -14 89 -49 134 -135
20 -37 51 -83 70 -101 19 -19 103 -68 187 -109 l153 -76 50 -77 c28 -43 83
-132 123 -198 41 -67 75 -120 77 -118 2 2 -5 35 -15 73 -18 71 -14 105 14 105
7 0 39 -19 70 -41 70 -50 84 -80 127 -262 33 -136 48 -151 50 -47 1 72 20 134
42 138 17 4 110 -64 133 -96 26 -38 85 -208 143 -412 68 -238 119 -386 163
-474 42 -83 112 -189 116 -174 1 7 -7 47 -18 88 -41 151 -58 227 -80 340 -22
118 -31 262 -17 276 4 4 22 -10 40 -31 74 -90 67 -83 60 -55 -3 14 -16 63 -30
110 -13 47 -27 122 -30 167 -5 71 -4 83 11 89 55 21 258 -189 453 -470 47 -67
95 -132 107 -146 13 -14 41 -59 62 -100 72 -139 237 -341 339 -416 l39 -29
-24 34 c-108 146 -263 411 -311 530 -43 107 -33 120 62 77 30 -14 91 -32 137
-40 101 -19 127 -36 289 -185 179 -165 200 -179 144 -98 -40 60 -81 143 -81
167 0 15 7 20 25 20 50 0 111 -44 238 -169 102 -100 128 -121 125 -101 -2 20
1 24 17 22 20 -3 226 -137 332 -216 32 -24 76 -53 98 -64 22 -11 65 -37 95
-57 30 -20 78 -48 105 -62 l50 -24 -81 78 c-45 43 -84 88 -88 101 -4 13 -18
24 -34 28 -15 3 -35 8 -44 10 -9 3 -29 27 -45 53 -30 51 -210 227 -370 362
-192 161 -324 234 -533 294 -320 93 -445 147 -638 274 -67 44 -139 89 -161
100 -22 11 -56 41 -76 66 -25 30 -49 48 -74 55 -21 5 -48 22 -62 36 -57 62
-274 185 -357 203 -27 5 -71 22 -97 36 -27 14 -61 25 -77 25 -33 0 -99 25
-110 43 -4 7 -12 28 -18 47 -7 26 -31 53 -90 104 -45 37 -92 86 -106 107 -14
22 -36 45 -49 51 -14 6 -25 14 -25 17 0 10 103 114 148 149 42 33 111 114 210
246 74 98 213 238 294 296 68 47 174 98 184 87 4 -3 -4 -20 -16 -36 -35 -50
-107 -179 -151 -271 -22 -47 -47 -98 -55 -114 -19 -38 -14 -33 117 100 79 79
109 117 125 157 11 29 32 73 47 97 37 64 87 196 87 228 0 16 18 65 40 110 21
45 53 115 71 154 96 221 255 435 260 351 3 -38 -4 -61 -38 -138 -19 -44 -44
-102 -54 -128 -19 -48 -19 -48 1 -42 28 9 70 -35 70 -74 0 -76 -171 -358 -505
-835 -27 -38 -59 -97 -72 -132 -12 -35 -45 -98 -73 -140 -28 -42 -62 -101 -77
-131 -31 -63 -107 -136 -188 -183 -30 -17 -57 -36 -61 -42 -8 -12 55 -4 132
18 75 21 124 21 140 -1 17 -23 31 -12 75 58 17 29 51 82 75 118 23 37 64 107
90 155 26 49 61 111 77 138 76 121 173 72 184 -94 5 -62 -3 -109 -61 -375 -8
-38 -17 -124 -19 -190 -3 -117 -2 -121 25 -172 33 -58 57 -84 59 -62 1 8 3 82
3 164 2 137 5 159 33 251 17 55 39 141 48 190 9 49 25 135 36 191 10 56 19
104 19 107 0 18 32 2 44 -21 11 -20 15 -23 16 -10 0 9 5 17 10 17 6 0 11 -8
12 -17 1 -10 5 68 9 172 23 632 37 691 133 596 45 -44 62 -49 92 -26 37 28 61
18 130 -54 90 -94 188 -232 207 -295 26 -84 48 -244 48 -351 1 -91 2 -98 14
-75 8 14 24 53 35 87 25 73 42 92 67 72 57 -48 209 -325 273 -499 21 -56 42
-92 69 -120 67 -68 73 -54 26 60 -13 30 -31 91 -40 134 -10 43 -35 131 -56
194 -70 207 -43 227 90 67 42 -51 38 -36 -35 139 -82 197 -74 202 74 46 63
-67 114 -112 130 -116 107 -25 198 -248 253 -617 28 -194 26 -226 -14 -275
-19 -22 -46 -73 -61 -113 -28 -76 -96 -186 -114 -182 -10 2 -66 -136 -58 -144
2 -2 16 11 30 29 14 18 55 71 91 118 106 138 125 160 143 160 31 0 42 -16 53
-76 13 -77 -6 -132 -96 -269 -36 -55 -65 -105 -65 -113 0 -38 141 87 184 164
57 102 66 145 64 292 -3 250 40 340 140 288 36 -19 145 -134 207 -220 28 -37
69 -94 93 -125 53 -70 98 -156 107 -203 8 -45 -18 -170 -45 -213 -28 -44 -133
-143 -164 -155 -15 -5 -40 -10 -56 -10 -16 0 -41 -5 -55 -10 -26 -10 -27 -11
-11 -35 32 -48 22 -66 -103 -199 -66 -69 -125 -135 -131 -146 -20 -37 22 -23
85 29 157 130 165 136 186 123 25 -16 57 5 123 82 66 77 102 97 168 94 l53 -3
13 45 c28 97 39 105 120 86 29 -7 36 -4 67 29 28 31 39 37 62 32 109 -20 152
-32 197 -57 28 -16 69 -31 91 -35 22 -3 56 -12 75 -19 19 -8 69 -23 110 -36
95 -28 133 -51 245 -144 50 -42 93 -76 96 -76 3 0 4 14 1 30 -3 20 0 30 9 30
7 0 59 -45 115 -101 111 -109 129 -116 154 -61 22 47 57 53 86 16 47 -58 54
-64 87 -64 19 0 50 -12 76 -30 24 -17 53 -30 64 -30 11 0 59 -22 107 -50 92
-53 240 -124 355 -171 105 -43 50 -8 -130 83 -158 80 -218 116 -283 170 -18
16 -42 28 -53 28 -12 0 -34 11 -50 25 -16 13 -45 29 -64 34 -20 5 -50 22 -68
37 -17 15 -50 35 -72 44 -38 17 -238 203 -260 243 -19 33 -137 56 -325 61
-130 4 -176 8 -189 19 -9 8 -41 27 -71 42 -112 56 -220 143 -220 177 0 17 -29
39 -122 92 -83 46 -111 102 -62 125 14 6 24 17 22 23 -3 7 -37 32 -77 57 -93
56 -192 148 -216 200 -16 38 -17 42 -1 65 9 14 16 31 16 37 0 7 -31 46 -68 88
-37 42 -82 94 -99 116 -35 45 -183 292 -183 305 0 5 42 7 93 4 153 -7 232 31
350 171 61 73 151 223 163 272 4 15 11 33 16 40 12 15 107 47 116 39 11 -12 3
-174 -13 -242 -8 -36 -27 -86 -42 -111 -15 -25 -30 -67 -34 -92 -6 -45 -6 -45
10 -22 9 14 33 45 54 70 67 80 96 152 117 286 16 104 27 129 70 164 22 18 40
36 40 42 0 5 -10 23 -22 40 l-22 29 21 21 c33 33 89 35 153 5 30 -14 63 -26
72 -26 9 0 19 -8 22 -18 3 -10 24 -35 46 -56 47 -44 71 -88 94 -166 19 -65 45
-246 46 -310 0 -33 3 -41 10 -30 5 8 10 24 10 36 0 11 7 44 15 72 19 64 41 68
84 15 54 -66 67 -121 85 -378 9 -118 15 -161 20 -140 15 61 29 85 46 85 20 0
30 -19 30 -58 0 -15 8 -49 19 -77 10 -27 21 -80 25 -117 3 -37 13 -86 21 -109
8 -23 15 -65 15 -95 0 -29 5 -65 11 -81 6 -15 14 -73 18 -128 8 -97 21 -163
62 -310 10 -38 19 -84 19 -102 0 -17 3 -34 8 -36 4 -3 8 120 9 273 4 370 29
591 63 553 9 -10 74 -207 95 -286 8 -31 26 -80 40 -108 14 -27 45 -107 69
-177 24 -70 57 -158 74 -197 17 -38 38 -91 46 -116 25 -70 133 -189 209 -229
34 -18 77 -46 96 -62 18 -16 35 -27 37 -25 8 7 -45 92 -90 145 -26 30 -46 58
-46 63 0 5 -25 60 -55 123 -81 170 -121 297 -99 319 4 4 31 -16 61 -43 57 -52
73 -60 73 -35 0 18 31 20 49 3 22 -22 4 25 -76 195 -70 147 -81 187 -52 187
15 0 161 -143 209 -205 41 -53 144 -251 224 -427 27 -60 53 -108 57 -108 5 0
9 18 9 41 0 25 4 38 10 34 6 -4 17 -1 25 5 21 17 34 4 75 -76 19 -37 49 -78
66 -93 17 -14 43 -44 56 -66 14 -22 33 -46 42 -54 9 -7 30 -37 47 -67 16 -29
34 -56 40 -59 5 -4 0 9 -10 27 -10 18 -22 44 -26 58 -4 14 -21 40 -37 58 -15
18 -38 53 -49 78 -12 25 -30 51 -41 58 -10 7 -34 49 -52 92 -18 44 -43 97 -54
119 -40 76 -47 123 -28 186 9 31 24 67 34 79 l18 23 85 -124 c46 -68 105 -158
130 -200 55 -90 119 -187 187 -284 28 -39 91 -147 142 -240 109 -200 162 -291
189 -325 l21 -25 -11 35 c-6 19 -15 50 -20 68 -12 38 -3 55 14 31 9 -12 16
-13 28 -6 12 8 26 5 53 -12 43 -27 43 -27 -21 98 -38 74 -93 229 -93 260 0 6
4 11 10 11 5 0 91 -54 189 -121 166 -112 187 -129 260 -218 83 -99 124 -145
180 -196 l33 -30 -26 52 c-14 29 -26 59 -26 68 0 22 24 19 46 -6 10 -12 44
-33 74 -48 30 -15 96 -50 145 -78 50 -28 106 -54 125 -58 19 -4 54 -18 77 -31
27 -16 57 -24 87 -24 43 0 100 -12 221 -45 54 -15 335 -58 341 -52 2 2 -31 12
-74 22 -100 23 -258 78 -348 121 -52 24 -78 44 -99 74 -15 22 -32 40 -36 40
-23 0 -5 20 29 31 36 12 36 13 12 20 -14 4 -65 14 -114 23 -125 24 -183 46
-299 117 -104 63 -314 209 -377 261 -19 16 -54 43 -77 61 -23 18 -130 111
-237 207 -162 146 -209 194 -279 290 -47 63 -105 135 -130 160 -25 25 -55 61
-67 82 -11 20 -62 73 -111 118 -74 66 -114 93 -213 141 -66 33 -141 64 -166
70 -25 5 -70 25 -100 43 -30 18 -102 58 -160 89 -174 91 -283 157 -318 190
-19 18 -50 61 -70 97 -19 36 -53 84 -74 107 -21 24 -38 49 -38 58 0 8 -11 25
-25 37 -17 15 -23 28 -19 43 7 29 -55 99 -122 136 -80 45 -120 90 -134 148
-15 63 -71 151 -139 219 -56 56 -71 85 -71 137 0 35 -14 50 -90 98 -33 22 -42
38 -55 100 -4 20 -21 38 -60 62 -38 25 -53 40 -48 51 3 9 -7 28 -27 49 -26 27
-45 36 -95 44 -35 6 -83 18 -107 27 -30 11 -58 13 -93 8 -27 -4 -64 -6 -81 -5
-36 3 -83 -39 -107 -97 -72 -169 -91 -209 -117 -247 -33 -47 -85 -95 -104 -95
-21 0 -56 -45 -67 -85 -15 -55 -85 -134 -138 -157 -54 -23 -97 -56 -169 -130
-30 -32 -61 -58 -69 -58 -22 0 -107 66 -149 117 -23 26 -60 78 -83 115 -46 73
-88 114 -127 124 -14 4 -31 19 -39 35 -17 32 -61 67 -122 98 -59 30 -108 75
-154 142 -29 43 -60 72 -123 113 -90 60 -126 96 -126 130 0 26 -27 58 -108
126 -73 61 -116 119 -131 178 -9 32 -22 49 -56 72 -46 32 -65 57 -65 86 0 9
-10 37 -22 61 -19 38 -32 49 -87 74 -35 16 -78 43 -95 59 -17 16 -65 59 -107
95 -42 36 -89 83 -104 105 -16 23 -41 50 -56 61 -35 25 -107 34 -138 17z"/>
</g>
</svg>
